<?xml version="1.0" encoding="utf-8"?>
<!-- Generator: Adobe Illustrator 16.0.1, SVG Export Plug-In . SVG Version: 6.00 Build 0)  -->
<!DOCTYPE svg PUBLIC "-//W3C//DTD SVG 1.1//EN" "http://www.w3.org/Graphics/SVG/1.1/DTD/svg11.dtd">
<svg version="1.1" id="Layer_1" xmlns="http://www.w3.org/2000/svg" xmlns:xlink="http://www.w3.org/1999/xlink" x="0px" y="0px"
	 width="56.693px" height="56.693px" viewBox="0 0 56.693 56.693" enable-background="new 0 0 56.693 56.693" xml:space="preserve">
<g>
	<path d="M51.503,11.243H5.19c-0.955,0-1.729,0.771-1.729,1.729v33.125c0,0.955,0.773,1.729,1.729,1.729h46.312
		c0.955,0,1.729-0.773,1.729-1.729V12.972C53.231,12.015,52.458,11.243,51.503,11.243z M49.774,44.368H6.919v-29.67h42.855V44.368z"
		/>
	<circle cx="18.103" cy="24.457" r="4.069"/>
	<path d="M42.089,26.935l-3.25,4.514l-6.186-8.805l-7.639,11.836c0,0-12.732-3.107-14.828,5.771h36.398L42.089,26.935z"/>
</g>
</svg>
